<svg id="_4" data-name="4" xmlns="http://www.w3.org/2000/svg" viewBox="0 0 150 150"><defs><style>.cls-1{fill:#fff;}</style></defs><title>LOGO 2020</title><path class="cls-1" d="M93.27,74.66v-.13c4.47-2.33,6.22-6.49,6.22-11.14,0-10.64-7.62-13.67-17.36-13.66H65.45l0,43.51,7,0L57,102.58H83.62c10.46,0,16.76-4.59,16.75-15.31,0-6.55-1.24-9.36-7.1-12.61M78.33,59.24c4.54,0,8.27-.22,8.28,5,0,6.28-2.63,5.92-8.27,6.28Zm0,33.82V80c5.49.21,9.15.06,9.15,6.19,0,7.12-2.7,6.7-9.15,6.84"/><path class="cls-1" d="M136.8,125.28H3.2l21.64-15.46V24.72h112ZM118.56,43.15H43.92v66.19h74.64Z"/></svg>