<svg id="_4" data-name="4" xmlns="http://www.w3.org/2000/svg" viewBox="0 0 211.81 61.27"><defs><style>.cls-1{fill:#fff;}</style></defs><title>logo-white</title><path class="cls-1" d="M166.09,50.06,158.77,39l.31-.12c3.59-1.47,4-4.95,4-7.74,0-5.21-2.65-7.23-7.94-7.23h-9.45v26.2h6.47V39.72h.08l6.81,10.34Zm-13.9-21.48c3.16-.07,4.52.07,4.52,3.18,0,1.6-.44,3.25-2.31,3.25h-2.21Z"/><path class="cls-1" d="M108.22,50.08V23.88h7.68c2.5,0,6.1.2,7.9,2.16,1.51,1.61,1.8,3.56,1.8,5.69,0,2.83-.69,6-3.63,7.31-2.24,1.05-4.85.73-7.28.84v10.2Zm6.46-14.92c1.21,0,2.61.11,3.64-.66a3.85,3.85,0,0,0,.81-2.66c0-1-.12-2.55-1.22-3a8.76,8.76,0,0,0-2.53-.21h-.7Z"/><polygon class="cls-1" points="127.5 50.07 127.5 23.87 142.3 23.87 142.31 29.11 133.96 29.11 133.97 33.93 142.05 33.93 142.05 39.17 133.97 39.17 133.97 44.83 142.75 44.83 142.75 50.07 127.5 50.07"/><path class="cls-1" d="M186.08,23.85h-9v19.6A2.24,2.24,0,0,1,174.87,46c-1.83,0-2.24-1.09-2.24-2.34V23.85h-6.46v19c0,5.38,3.2,7.86,8.68,7.85,6.61,0,8.7-3.42,8.7-7.86v-12h-6.23Z"/><polygon class="cls-1" points="72.61 35.42 72.53 35.49 73.13 50.09 66.99 50.1 66.98 23.9 73.63 23.89 78.63 38.53 78.74 38.53 78.11 23.89 84.25 23.89 84.26 50.09 77.64 50.09 72.61 35.42"/><path class="cls-1" d="M87.53,50.09V23.89h7c2.35,0,5.18.06,7.27,1.22,2.5,1.39,2.91,3.94,2.91,6.46V43.2c0,2.62-.89,4.54-2.76,5.66a10.71,10.71,0,0,1-5.73,1.23ZM94,45.37c4.33.28,4.37-1.4,4.26-4.89V31.92c0-3.08-1.1-3.25-4.26-3.32Z"/><path class="cls-1" d="M59.11,23.9H51.32L46,47.15,40.62,39l.31-.12c3.59-1.47,4-5,4-7.74,0-5.21-2.65-7.23-7.94-7.23H27.57l0,26.2h6.46V39.77h.08l6.81,10.34H51.81l.77-5.1h5.07l.92,5.1h6.54ZM36.25,35.05h-2.2V28.63c3.16-.07,4.52.06,4.52,3.17,0,1.61-.44,3.25-2.31,3.25m17,5.34,2-11L57,40.39Z"/><path class="cls-1" d="M21.18,36.28v-.07a5.79,5.79,0,0,0,3.12-5.52c0-5.27-3.82-6.77-8.71-6.77H7.22V45.5h3.52L3,50.12H16.34c5.25,0,8.41-2.27,8.41-7.59,0-3.24-.63-4.64-3.57-6.25m-7.5-7.64c2.28,0,4.16-.11,4.16,2.47,0,3.11-1.33,2.94-4.15,3.11Zm0,16.76V38.94c2.75.1,4.59,0,4.59,3.07,0,3.53-1.36,3.32-4.59,3.39"/><path class="cls-1" d="M208.81,29.08l-25.48,0,4.6-3.71V10.59h20.9ZM204.44,14.9H192.53l0,10.35,11.94,0Z"/></svg>